<svg width="111" height="42" viewBox="0 0 111 42" fill="none" xmlns="http://www.w3.org/2000/svg">
<rect x="23" width="80" height="30" rx="14" fill="#4394C2"/>
<path d="M33.573 16.108C32.931 16.108 32.376 15.994 31.908 15.766C31.446 15.532 31.089 15.211 30.837 14.803C30.585 14.389 30.459 13.912 30.459 13.372C30.459 12.838 30.552 12.34 30.738 11.878C30.93 11.416 31.197 11.017 31.539 10.681C31.887 10.339 32.298 10.072 32.772 9.88C33.252 9.688 33.786 9.592 34.374 9.592C34.938 9.592 35.436 9.688 35.868 9.88C36.3 10.072 36.627 10.348 36.849 10.708L35.796 11.572C35.634 11.332 35.427 11.149 35.175 11.023C34.923 10.897 34.623 10.834 34.275 10.834C33.921 10.834 33.6 10.897 33.312 11.023C33.024 11.143 32.775 11.317 32.565 11.545C32.361 11.767 32.205 12.028 32.097 12.328C31.989 12.628 31.935 12.946 31.935 13.282C31.935 13.6 32.004 13.879 32.142 14.119C32.28 14.353 32.481 14.536 32.745 14.668C33.009 14.8 33.327 14.866 33.699 14.866C34.023 14.866 34.326 14.809 34.608 14.695C34.89 14.575 35.145 14.389 35.373 14.137L36.237 15.019C35.907 15.403 35.514 15.682 35.058 15.856C34.608 16.024 34.113 16.108 33.573 16.108ZM35.3793 16L39.4473 9.7H40.8963L42.4443 16H40.9863L39.7623 10.42H40.3383L36.9363 16H35.3793ZM37.0623 14.65L37.6563 13.543H40.9053L41.0763 14.65H37.0623ZM42.558 16L43.818 9.7H45.285L44.259 14.812H47.418L47.175 16H42.558ZM47.4496 16L48.7096 9.7H50.1766L49.1506 14.812H52.3096L52.0666 16H47.4496ZM57.3201 16.108C56.7081 16.108 56.1981 15.988 55.7901 15.748C55.3821 15.508 55.0941 15.175 54.9261 14.749C54.7641 14.317 54.7401 13.81 54.8541 13.228L55.5561 9.7H57.0231L56.3211 13.201C56.2671 13.483 56.2521 13.729 56.2761 13.939C56.3001 14.149 56.3601 14.323 56.4561 14.461C56.5581 14.599 56.6961 14.701 56.8701 14.767C57.0441 14.833 57.2481 14.866 57.4821 14.866C57.7761 14.866 58.0311 14.809 58.2471 14.695C58.4631 14.581 58.6431 14.401 58.7871 14.155C58.9311 13.909 59.0421 13.591 59.1201 13.201L59.8221 9.7H61.2531L60.5421 13.291C60.3561 14.221 59.9931 14.923 59.4531 15.397C58.9131 15.871 58.2021 16.108 57.3201 16.108ZM63.0988 16.108C62.7568 16.108 62.4238 16.075 62.0998 16.009C61.7818 15.949 61.4908 15.865 61.2268 15.757C60.9688 15.649 60.7498 15.532 60.5698 15.406L61.1638 14.281C61.3618 14.419 61.5718 14.539 61.7938 14.641C62.0218 14.737 62.2588 14.812 62.5048 14.866C62.7508 14.914 62.9968 14.938 63.2428 14.938C63.5128 14.938 63.7438 14.908 63.9358 14.848C64.1338 14.788 64.2838 14.704 64.3858 14.596C64.4938 14.488 64.5478 14.356 64.5478 14.2C64.5478 14.056 64.4908 13.939 64.3768 13.849C64.2628 13.759 64.1128 13.684 63.9268 13.624C63.7468 13.558 63.5458 13.495 63.3238 13.435C63.1018 13.375 62.8768 13.306 62.6488 13.228C62.4268 13.144 62.2228 13.042 62.0368 12.922C61.8568 12.796 61.7098 12.637 61.5958 12.445C61.4818 12.253 61.4248 12.013 61.4248 11.725C61.4248 11.293 61.5418 10.918 61.7758 10.6C62.0158 10.282 62.3518 10.036 62.7838 9.862C63.2158 9.682 63.7228 9.592 64.3048 9.592C64.7308 9.592 65.1328 9.64 65.5108 9.736C65.8888 9.826 66.2128 9.958 66.4828 10.132L65.9338 11.248C65.6938 11.086 65.4268 10.966 65.1328 10.888C64.8388 10.804 64.5358 10.762 64.2238 10.762C63.9418 10.762 63.6988 10.795 63.4948 10.861C63.2968 10.927 63.1438 11.02 63.0358 11.14C62.9338 11.254 62.8828 11.386 62.8828 11.536C62.8828 11.686 62.9368 11.809 63.0448 11.905C63.1588 11.995 63.3088 12.073 63.4948 12.139C63.6808 12.199 63.8848 12.259 64.1068 12.319C64.3288 12.379 64.5508 12.448 64.7728 12.526C64.9948 12.604 65.1988 12.703 65.3848 12.823C65.5708 12.943 65.7208 13.096 65.8348 13.282C65.9488 13.462 66.0058 13.69 66.0058 13.966C66.0058 14.398 65.8858 14.776 65.6458 15.1C65.4058 15.418 65.0668 15.667 64.6288 15.847C64.1968 16.021 63.6868 16.108 63.0988 16.108ZM68.1109 16L69.3709 9.7H70.5769L73.2859 14.263L72.8089 14.236L73.7089 9.7H75.1489L73.8889 16H72.6919L69.9739 11.437L70.4599 11.464L69.5509 16H68.1109ZM78.1065 16.108C77.4705 16.108 76.9215 15.994 76.4595 15.766C76.0035 15.532 75.6525 15.211 75.4065 14.803C75.1605 14.389 75.0375 13.912 75.0375 13.372C75.0375 12.832 75.1305 12.334 75.3165 11.878C75.5025 11.416 75.7665 11.017 76.1085 10.681C76.4565 10.339 76.8675 10.072 77.3415 9.88C77.8215 9.688 78.3525 9.592 78.9345 9.592C79.5705 9.592 80.1165 9.709 80.5725 9.943C81.0345 10.171 81.3885 10.492 81.6345 10.906C81.8805 11.314 82.0035 11.788 82.0035 12.328C82.0035 12.868 81.9105 13.369 81.7245 13.831C81.5385 14.287 81.2715 14.686 80.9235 15.028C80.5815 15.364 80.1705 15.628 79.6905 15.82C79.2165 16.012 78.6885 16.108 78.1065 16.108ZM78.2325 14.866C78.5865 14.866 78.9045 14.803 79.1865 14.677C79.4745 14.545 79.7175 14.365 79.9155 14.137C80.1135 13.909 80.2635 13.648 80.3655 13.354C80.4735 13.054 80.5275 12.739 80.5275 12.409C80.5275 12.097 80.4615 11.824 80.3295 11.59C80.1975 11.35 80.0025 11.164 79.7445 11.032C79.4925 10.9 79.1805 10.834 78.8085 10.834C78.4545 10.834 78.1365 10.9 77.8545 11.032C77.5725 11.158 77.3295 11.335 77.1255 11.563C76.9275 11.791 76.7745 12.055 76.6665 12.355C76.5645 12.649 76.5135 12.961 76.5135 13.291C76.5135 13.603 76.5795 13.879 76.7115 14.119C76.8495 14.353 77.0445 14.536 77.2965 14.668C77.5545 14.8 77.8665 14.866 78.2325 14.866ZM83.2031 16L82.4021 9.7H83.8421L84.5441 15.271H83.7881L86.7671 9.7H88.1171L88.7921 15.271H88.0721L91.0331 9.7H92.4821L89.1521 16H87.5951L86.9651 11.104H87.4061L84.7691 16H83.2031ZM92.1387 13.813L92.6877 9.7H94.3617L93.2547 13.813H92.1387ZM92.3727 16.072C92.1327 16.072 91.9347 16 91.7787 15.856C91.6227 15.706 91.5447 15.526 91.5447 15.316C91.5447 15.064 91.6317 14.857 91.8057 14.695C91.9857 14.533 92.2017 14.452 92.4537 14.452C92.6937 14.452 92.8887 14.524 93.0387 14.668C93.1947 14.806 93.2727 14.98 93.2727 15.19C93.2727 15.352 93.2307 15.502 93.1467 15.64C93.0687 15.772 92.9607 15.877 92.8227 15.955C92.6907 16.033 92.5407 16.072 92.3727 16.072Z" fill="white"/>
<rect x="11" y="22" width="100" height="20" rx="10" fill="#004AAD"/>
<path d="M29.188 36.746C29.104 36.524 29.029 36.281 28.963 36.017C28.903 35.753 28.855 35.477 28.819 35.189C28.789 34.907 28.774 34.631 28.774 34.361C28.774 33.809 28.822 33.257 28.918 32.705C29.014 32.147 29.149 31.607 29.323 31.085C29.503 30.557 29.716 30.059 29.962 29.591C30.214 29.123 30.493 28.7 30.799 28.322H31.456C31.138 28.718 30.853 29.159 30.601 29.645C30.349 30.125 30.13 30.629 29.944 31.157C29.764 31.685 29.626 32.225 29.53 32.777C29.434 33.323 29.386 33.863 29.386 34.397C29.386 34.793 29.416 35.18 29.476 35.558C29.542 35.942 29.638 36.338 29.764 36.746H29.188ZM33.5809 35.054C33.1069 35.054 32.6959 34.988 32.3479 34.856C31.9999 34.718 31.7329 34.526 31.5469 34.28C31.3609 34.028 31.2679 33.731 31.2679 33.389C31.2679 33.005 31.3669 32.675 31.5649 32.399C31.7689 32.117 32.0599 31.901 32.4379 31.751C32.8219 31.595 33.2809 31.517 33.8149 31.517C34.3069 31.517 34.7269 31.583 35.0749 31.715C35.4229 31.841 35.6869 32.027 35.8669 32.273C36.0529 32.513 36.1459 32.798 36.1459 33.128C36.1459 33.524 36.0379 33.866 35.8219 34.154C35.6119 34.442 35.3149 34.664 34.9309 34.82C34.5469 34.976 34.0969 35.054 33.5809 35.054ZM33.6079 34.505C34.1899 34.505 34.6489 34.382 34.9849 34.136C35.3209 33.89 35.4889 33.557 35.4889 33.137C35.4889 32.777 35.3389 32.495 35.0389 32.291C34.7389 32.081 34.3249 31.976 33.7969 31.976C33.2149 31.976 32.7559 32.099 32.4199 32.345C32.0899 32.591 31.9249 32.924 31.9249 33.344C31.9249 33.704 32.0719 33.989 32.3659 34.199C32.6659 34.403 33.0799 34.505 33.6079 34.505ZM34.2109 31.904C33.7549 31.904 33.3679 31.844 33.0499 31.724C32.7319 31.604 32.4919 31.433 32.3299 31.211C32.1679 30.989 32.0869 30.728 32.0869 30.428C32.0869 30.062 32.1829 29.747 32.3749 29.483C32.5669 29.213 32.8369 29.006 33.1849 28.862C33.5329 28.718 33.9379 28.646 34.3999 28.646C34.8259 28.646 35.1979 28.709 35.5159 28.835C35.8339 28.955 36.0799 29.129 36.2539 29.357C36.4339 29.585 36.5239 29.858 36.5239 30.176C36.5239 30.53 36.4309 30.836 36.2449 31.094C36.0649 31.352 35.8009 31.553 35.4529 31.697C35.1109 31.835 34.6969 31.904 34.2109 31.904ZM34.2199 31.463C34.7299 31.463 35.1319 31.352 35.4259 31.13C35.7199 30.908 35.8669 30.617 35.8669 30.257C35.8669 29.927 35.7319 29.669 35.4619 29.483C35.1919 29.291 34.8289 29.195 34.3729 29.195C33.8809 29.195 33.4849 29.306 33.1849 29.528C32.8909 29.744 32.7439 30.041 32.7439 30.419C32.7439 30.737 32.8729 30.992 33.1309 31.184C33.3889 31.37 33.7519 31.463 34.2199 31.463ZM37.7902 35L38.9872 28.997L39.2212 29.276H37.4482L37.5652 28.7H39.7072L38.4472 35H37.7902ZM42.5721 35.054C42.0981 35.054 41.6871 34.988 41.3391 34.856C40.9911 34.718 40.7241 34.526 40.5381 34.28C40.3521 34.028 40.2591 33.731 40.2591 33.389C40.2591 33.005 40.3581 32.675 40.5561 32.399C40.7601 32.117 41.0511 31.901 41.4291 31.751C41.8131 31.595 42.2721 31.517 42.8061 31.517C43.2981 31.517 43.7181 31.583 44.0661 31.715C44.4141 31.841 44.6781 32.027 44.8581 32.273C45.0441 32.513 45.1371 32.798 45.1371 33.128C45.1371 33.524 45.0291 33.866 44.8131 34.154C44.6031 34.442 44.3061 34.664 43.9221 34.82C43.5381 34.976 43.0881 35.054 42.5721 35.054ZM42.5991 34.505C43.1811 34.505 43.6401 34.382 43.9761 34.136C44.3121 33.89 44.4801 33.557 44.4801 33.137C44.4801 32.777 44.3301 32.495 44.0301 32.291C43.7301 32.081 43.3161 31.976 42.7881 31.976C42.2061 31.976 41.7471 32.099 41.4111 32.345C41.0811 32.591 40.9161 32.924 40.9161 33.344C40.9161 33.704 41.0631 33.989 41.3571 34.199C41.6571 34.403 42.0711 34.505 42.5991 34.505ZM43.2021 31.904C42.7461 31.904 42.3591 31.844 42.0411 31.724C41.7231 31.604 41.4831 31.433 41.3211 31.211C41.1591 30.989 41.0781 30.728 41.0781 30.428C41.0781 30.062 41.1741 29.747 41.3661 29.483C41.5581 29.213 41.8281 29.006 42.1761 28.862C42.5241 28.718 42.9291 28.646 43.3911 28.646C43.8171 28.646 44.1891 28.709 44.5071 28.835C44.8251 28.955 45.0711 29.129 45.2451 29.357C45.4251 29.585 45.5151 29.858 45.5151 30.176C45.5151 30.53 45.4221 30.836 45.2361 31.094C45.0561 31.352 44.7921 31.553 44.4441 31.697C44.1021 31.835 43.6881 31.904 43.2021 31.904ZM43.2111 31.463C43.7211 31.463 44.1231 31.352 44.4171 31.13C44.7111 30.908 44.8581 30.617 44.8581 30.257C44.8581 29.927 44.7231 29.669 44.4531 29.483C44.1831 29.291 43.8201 29.195 43.3641 29.195C42.8721 29.195 42.4761 29.306 42.1761 29.528C41.8821 29.744 41.7351 30.041 41.7351 30.419C41.7351 30.737 41.8641 30.992 42.1221 31.184C42.3801 31.37 42.7431 31.463 43.2111 31.463ZM45.6744 36.746C45.9924 36.344 46.2774 35.903 46.5294 35.423C46.7874 34.943 47.0064 34.439 47.1864 33.911C47.3664 33.383 47.5044 32.846 47.6004 32.3C47.6964 31.748 47.7444 31.205 47.7444 30.671C47.7444 30.275 47.7144 29.888 47.6544 29.51C47.5944 29.126 47.4984 28.73 47.3664 28.322H47.9424C48.0324 28.538 48.1074 28.781 48.1674 29.051C48.2274 29.315 48.2724 29.588 48.3024 29.87C48.3384 30.152 48.3564 30.431 48.3564 30.707C48.3564 31.259 48.3084 31.814 48.2124 32.372C48.1164 32.924 47.9784 33.464 47.7984 33.992C47.6244 34.514 47.4144 35.009 47.1684 35.477C46.9224 35.945 46.6434 36.368 46.3314 36.746H45.6744ZM53.6288 35.054C53.1548 35.054 52.7438 34.988 52.3958 34.856C52.0478 34.718 51.7808 34.526 51.5948 34.28C51.4088 34.028 51.3158 33.731 51.3158 33.389C51.3158 33.005 51.4148 32.675 51.6128 32.399C51.8168 32.117 52.1078 31.901 52.4858 31.751C52.8698 31.595 53.3288 31.517 53.8628 31.517C54.3548 31.517 54.7748 31.583 55.1228 31.715C55.4708 31.841 55.7348 32.027 55.9148 32.273C56.1008 32.513 56.1938 32.798 56.1938 33.128C56.1938 33.524 56.0858 33.866 55.8698 34.154C55.6598 34.442 55.3628 34.664 54.9788 34.82C54.5948 34.976 54.1448 35.054 53.6288 35.054ZM53.6558 34.505C54.2378 34.505 54.6968 34.382 55.0328 34.136C55.3688 33.89 55.5368 33.557 55.5368 33.137C55.5368 32.777 55.3868 32.495 55.0868 32.291C54.7868 32.081 54.3728 31.976 53.8448 31.976C53.2628 31.976 52.8038 32.099 52.4678 32.345C52.1378 32.591 51.9728 32.924 51.9728 33.344C51.9728 33.704 52.1198 33.989 52.4138 34.199C52.7138 34.403 53.1278 34.505 53.6558 34.505ZM54.2588 31.904C53.8028 31.904 53.4158 31.844 53.0978 31.724C52.7798 31.604 52.5398 31.433 52.3778 31.211C52.2158 30.989 52.1348 30.728 52.1348 30.428C52.1348 30.062 52.2308 29.747 52.4228 29.483C52.6148 29.213 52.8848 29.006 53.2328 28.862C53.5808 28.718 53.9858 28.646 54.4478 28.646C54.8738 28.646 55.2458 28.709 55.5638 28.835C55.8818 28.955 56.1278 29.129 56.3018 29.357C56.4818 29.585 56.5718 29.858 56.5718 30.176C56.5718 30.53 56.4788 30.836 56.2928 31.094C56.1128 31.352 55.8488 31.553 55.5008 31.697C55.1588 31.835 54.7448 31.904 54.2588 31.904ZM54.2678 31.463C54.7778 31.463 55.1798 31.352 55.4738 31.13C55.7678 30.908 55.9148 30.617 55.9148 30.257C55.9148 29.927 55.7798 29.669 55.5098 29.483C55.2398 29.291 54.8768 29.195 54.4208 29.195C53.9288 29.195 53.5328 29.306 53.2328 29.528C52.9388 29.744 52.7918 30.041 52.7918 30.419C52.7918 30.737 52.9208 30.992 53.1788 31.184C53.4368 31.37 53.7998 31.463 54.2678 31.463ZM59.602 35.054C59.152 35.054 58.75 34.961 58.396 34.775C58.048 34.589 57.775 34.313 57.577 33.947C57.385 33.575 57.289 33.113 57.289 32.561C57.289 32.207 57.328 31.847 57.406 31.481C57.484 31.109 57.607 30.755 57.775 30.419C57.949 30.077 58.171 29.774 58.441 29.51C58.711 29.24 59.038 29.03 59.422 28.88C59.806 28.724 60.25 28.646 60.754 28.646C61.048 28.646 61.327 28.673 61.591 28.727C61.855 28.781 62.08 28.871 62.266 28.997L61.96 29.519C61.792 29.405 61.6 29.327 61.384 29.285C61.168 29.237 60.946 29.213 60.718 29.213C60.328 29.213 59.983 29.276 59.683 29.402C59.389 29.522 59.134 29.687 58.918 29.897C58.708 30.101 58.534 30.338 58.396 30.608C58.258 30.872 58.153 31.154 58.081 31.454C58.015 31.748 57.979 32.042 57.973 32.336C57.967 32.48 57.964 32.591 57.964 32.669C57.964 32.741 57.964 32.807 57.964 32.867L57.694 32.804C57.796 32.42 57.955 32.114 58.171 31.886C58.387 31.652 58.642 31.484 58.936 31.382C59.23 31.28 59.536 31.229 59.854 31.229C60.232 31.229 60.571 31.298 60.871 31.436C61.177 31.574 61.42 31.775 61.6 32.039C61.786 32.303 61.879 32.624 61.879 33.002C61.879 33.422 61.78 33.788 61.582 34.1C61.39 34.406 61.123 34.643 60.781 34.811C60.439 34.973 60.046 35.054 59.602 35.054ZM59.593 34.505C60.079 34.505 60.472 34.376 60.772 34.118C61.072 33.86 61.222 33.503 61.222 33.047C61.222 32.633 61.081 32.318 60.799 32.102C60.517 31.886 60.157 31.778 59.719 31.778C59.383 31.778 59.086 31.841 58.828 31.967C58.576 32.093 58.378 32.264 58.234 32.48C58.096 32.696 58.027 32.939 58.027 33.209C58.027 33.419 58.084 33.626 58.198 33.83C58.318 34.028 58.495 34.19 58.729 34.316C58.963 34.442 59.251 34.505 59.593 34.505ZM64.8164 35.054C64.3904 35.054 64.0244 34.964 63.7184 34.784C63.4124 34.604 63.1754 34.343 63.0074 34.001C62.8454 33.659 62.7644 33.251 62.7644 32.777C62.7644 32.243 62.8364 31.73 62.9804 31.238C63.1304 30.74 63.3404 30.296 63.6104 29.906C63.8864 29.516 64.2164 29.21 64.6004 28.988C64.9904 28.76 65.4284 28.646 65.9144 28.646C66.3464 28.646 66.7124 28.736 67.0124 28.916C67.3184 29.096 67.5524 29.357 67.7144 29.699C67.8824 30.035 67.9664 30.443 67.9664 30.923C67.9664 31.457 67.8914 31.973 67.7414 32.471C67.5974 32.963 67.3874 33.404 67.1114 33.794C66.8414 34.184 66.5114 34.493 66.1214 34.721C65.7374 34.943 65.3024 35.054 64.8164 35.054ZM64.8704 34.46C65.2604 34.46 65.6054 34.355 65.9054 34.145C66.2114 33.935 66.4664 33.656 66.6704 33.308C66.8804 32.96 67.0394 32.579 67.1474 32.165C67.2554 31.751 67.3094 31.34 67.3094 30.932C67.3094 30.386 67.1804 29.969 66.9224 29.681C66.6704 29.387 66.3164 29.24 65.8604 29.24C65.4704 29.24 65.1224 29.345 64.8164 29.555C64.5164 29.765 64.2614 30.044 64.0514 30.392C63.8474 30.74 63.6914 31.121 63.5834 31.535C63.4754 31.949 63.4214 32.36 63.4214 32.768C63.4214 33.314 63.5474 33.734 63.7994 34.028C64.0574 34.316 64.4144 34.46 64.8704 34.46ZM68.7667 32.84L68.8747 32.282H71.2327L71.1247 32.84H68.7667ZM74.3525 35.054C73.9265 35.054 73.5605 34.964 73.2545 34.784C72.9485 34.604 72.7115 34.343 72.5435 34.001C72.3815 33.659 72.3005 33.251 72.3005 32.777C72.3005 32.243 72.3725 31.73 72.5165 31.238C72.6665 30.74 72.8765 30.296 73.1465 29.906C73.4225 29.516 73.7525 29.21 74.1365 28.988C74.5265 28.76 74.9645 28.646 75.4505 28.646C75.8825 28.646 76.2485 28.736 76.5485 28.916C76.8545 29.096 77.0885 29.357 77.2505 29.699C77.4185 30.035 77.5025 30.443 77.5025 30.923C77.5025 31.457 77.4275 31.973 77.2775 32.471C77.1335 32.963 76.9235 33.404 76.6475 33.794C76.3775 34.184 76.0475 34.493 75.6575 34.721C75.2735 34.943 74.8385 35.054 74.3525 35.054ZM74.4065 34.46C74.7965 34.46 75.1415 34.355 75.4415 34.145C75.7475 33.935 76.0025 33.656 76.2065 33.308C76.4165 32.96 76.5755 32.579 76.6835 32.165C76.7915 31.751 76.8455 31.34 76.8455 30.932C76.8455 30.386 76.7165 29.969 76.4585 29.681C76.2065 29.387 75.8525 29.24 75.3965 29.24C75.0065 29.24 74.6585 29.345 74.3525 29.555C74.0525 29.765 73.7975 30.044 73.5875 30.392C73.3835 30.74 73.2275 31.121 73.1195 31.535C73.0115 31.949 72.9575 32.36 72.9575 32.768C72.9575 33.314 73.0835 33.734 73.3355 34.028C73.5935 34.316 73.9505 34.46 74.4065 34.46ZM79.8165 35.054C79.3365 35.054 78.9045 34.979 78.5205 34.829C78.1425 34.679 77.8545 34.481 77.6565 34.235L78.0255 33.731C78.1875 33.941 78.4275 34.115 78.7455 34.253C79.0635 34.391 79.4355 34.46 79.8615 34.46C80.4555 34.46 80.9175 34.331 81.2475 34.073C81.5775 33.809 81.7425 33.452 81.7425 33.002C81.7425 32.648 81.6075 32.369 81.3375 32.165C81.0675 31.961 80.6175 31.859 79.9875 31.859H78.5295L79.4835 28.7H82.9215L82.8045 29.276H79.6185L80.0505 28.961L79.2315 31.607L78.9435 31.283H80.0955C80.8935 31.283 81.4755 31.433 81.8415 31.733C82.2135 32.027 82.3995 32.426 82.3995 32.93C82.3995 33.362 82.2915 33.737 82.0755 34.055C81.8655 34.373 81.5655 34.619 81.1755 34.793C80.7915 34.967 80.3385 35.054 79.8165 35.054ZM83.9152 35L85.1122 28.997L85.3462 29.276H83.5732L83.6902 28.7H85.8322L84.5722 35H83.9152ZM88.6611 35.054C88.2351 35.054 87.8691 34.964 87.5631 34.784C87.2571 34.604 87.0201 34.343 86.8521 34.001C86.6901 33.659 86.6091 33.251 86.6091 32.777C86.6091 32.243 86.6811 31.73 86.8251 31.238C86.9751 30.74 87.1851 30.296 87.4551 29.906C87.7311 29.516 88.0611 29.21 88.4451 28.988C88.8351 28.76 89.2731 28.646 89.7591 28.646C90.1911 28.646 90.5571 28.736 90.8571 28.916C91.1631 29.096 91.3971 29.357 91.5591 29.699C91.7271 30.035 91.8111 30.443 91.8111 30.923C91.8111 31.457 91.7361 31.973 91.5861 32.471C91.4421 32.963 91.2321 33.404 90.9561 33.794C90.6861 34.184 90.3561 34.493 89.9661 34.721C89.5821 34.943 89.1471 35.054 88.6611 35.054ZM88.7151 34.46C89.1051 34.46 89.4501 34.355 89.7501 34.145C90.0561 33.935 90.3111 33.656 90.5151 33.308C90.7251 32.96 90.8841 32.579 90.9921 32.165C91.1001 31.751 91.1541 31.34 91.1541 30.932C91.1541 30.386 91.0251 29.969 90.7671 29.681C90.5151 29.387 90.1611 29.24 89.7051 29.24C89.3151 29.24 88.9671 29.345 88.6611 29.555C88.3611 29.765 88.1061 30.044 87.8961 30.392C87.6921 30.74 87.5361 31.121 87.4281 31.535C87.3201 31.949 87.2661 32.36 87.2661 32.768C87.2661 33.314 87.3921 33.734 87.6441 34.028C87.9021 34.316 88.2591 34.46 88.7151 34.46Z" fill="white"/>
<g filter="url(#filter0_d_29_23)">
<circle cx="15" cy="19" r="15" fill="#CB0303"/>
</g>
<g clip-path="url(#clip0_29_23)">
<path d="M19.8398 23.9736L19.0444 24.769C18.9023 24.9103 18.4863 24.9997 18.4739 24.9997C15.9559 25.0209 13.5316 24.0322 11.7501 22.2502C9.96341 20.4639 8.97358 18.0301 9.00105 15.5048C9.00105 15.5033 9.09224 15.0991 9.23397 14.9584L10.0294 14.1623C10.3212 13.8708 10.88 13.739 11.2715 13.8693L11.4392 13.9257C11.8307 14.0561 12.2397 14.4882 12.3481 14.8859L12.7487 16.3558C12.8575 16.7543 12.7114 17.3211 12.4199 17.6126L11.8882 18.1443C12.4096 20.0772 13.9253 21.5925 15.857 22.1147L16.3888 21.5829C16.6803 21.2914 17.2486 21.1457 17.6471 21.2541L19.117 21.6555C19.514 21.7631 19.9461 22.1718 20.0772 22.5636L20.1329 22.7313C20.2631 23.1232 20.1313 23.6821 19.8398 23.9736ZM15.7501 18.9998H16.5001C16.5001 18.1715 15.8285 17.4999 15.0001 17.4999V18.2498C15.4135 18.2498 15.7501 18.5867 15.7501 18.9998ZM18.75 18.9998C18.75 16.9286 17.0713 15.2499 15.0001 15.2499V15.9999C16.6546 15.9999 18 17.3461 18 18.9998H18.75ZM15.0001 13V13.75C17.8946 13.75 20.2499 16.1054 20.2499 18.9998H20.9999C20.9999 15.6864 18.3135 13 15.0001 13Z" fill="white"/>
</g>
<defs>
<filter id="filter0_d_29_23" x="0" y="4" width="35" height="34" filterUnits="userSpaceOnUse" color-interpolation-filters="sRGB">
<feFlood flood-opacity="0" result="BackgroundImageFix"/>
<feColorMatrix in="SourceAlpha" type="matrix" values="0 0 0 0 0 0 0 0 0 0 0 0 0 0 0 0 0 0 127 0" result="hardAlpha"/>
<feMorphology radius="2" operator="erode" in="SourceAlpha" result="effect1_dropShadow_29_23"/>
<feOffset dx="3" dy="2"/>
<feGaussianBlur stdDeviation="2"/>
<feComposite in2="hardAlpha" operator="out"/>
<feColorMatrix type="matrix" values="0 0 0 0 0 0 0 0 0 0 0 0 0 0 0 0 0 0 0.7 0"/>
<feBlend mode="normal" in2="BackgroundImageFix" result="effect1_dropShadow_29_23"/>
<feBlend mode="normal" in="SourceGraphic" in2="effect1_dropShadow_29_23" result="shape"/>
</filter>
<clipPath id="clip0_29_23">
<rect width="12" height="12" fill="white" transform="translate(9 13)"/>
</clipPath>
</defs>
</svg>
