<svg width="12" height="12" viewBox="0 0 12 12" fill="none" xmlns="http://www.w3.org/2000/svg">
<g clip-path="url(#clip0_29_43)">
<path d="M10.8398 10.9736L10.0444 11.769C9.90232 11.9103 9.4863 11.9997 9.47386 11.9997C6.95585 12.0209 4.53162 11.0322 2.75007 9.25022C0.96341 7.46389 -0.0264236 5.03012 0.0010451 2.50481C0.0010451 2.50333 0.0922402 2.09906 0.233967 1.95843L1.02936 1.16231C1.32123 0.870819 1.88003 0.738983 2.2715 0.869342L2.43922 0.925733C2.8307 1.05609 3.23973 1.48821 3.34812 1.88589L3.74874 3.35582C3.85749 3.75426 3.71138 4.32112 3.41989 4.61261L2.88816 5.14433C3.40965 7.07715 4.92532 8.59248 6.85704 9.11469L7.38877 8.58294C7.68028 8.29142 8.24862 8.14569 8.64705 8.25409L10.117 8.65545C10.514 8.76312 10.9461 9.17178 11.0772 9.56361L11.1329 9.73133C11.2631 10.1232 11.1313 10.6821 10.8398 10.9736ZM6.75009 5.99982H7.50007C7.50007 5.17147 6.82847 4.49987 6.00012 4.49987V5.24985C6.41353 5.24985 6.75009 5.58674 6.75009 5.99982ZM9.75 5.99982C9.75 3.92859 8.07133 2.24993 6.00012 2.24993V2.99992C7.65459 2.99992 9.00002 4.34608 9.00002 5.99982H9.75ZM6.00012 0V0.749975C8.89455 0.749975 11.2499 3.10537 11.2499 5.99982H11.9999C11.9999 2.68645 9.3135 0 6.00012 0Z" fill="white"/>
</g>
<defs>
<clipPath id="clip0_29_43">
<rect width="12" height="12" fill="white"/>
</clipPath>
</defs>
</svg>
