<svg width="40" height="40" viewBox="0 0 40 40" fill="none" xmlns="http://www.w3.org/2000/svg">
<g clip-path="url(#clip0_4_197)">
<path d="M32.4906 29.1062C32.4906 31.0078 30.9489 32.5488 29.048 32.5488H10.2698C8.36881 32.5488 6.82712 31.0078 6.82712 29.1062V3.44266C6.82712 1.54106 8.36881 0 10.2698 0H29.048C30.9489 0 32.4906 1.54106 32.4906 3.44266V29.1062ZM30.6128 3.44266C30.6128 2.57824 29.9124 1.87782 29.048 1.87782H10.2698C9.40536 1.87782 8.70493 2.57824 8.70493 3.44266V29.1062C8.70493 29.9706 9.40536 30.671 10.2698 30.671H29.048C29.9124 30.671 30.6128 29.9706 30.6128 29.1062V3.44266Z" fill="white"/>
<path d="M27.4831 33.8007C27.4831 34.1462 27.2033 34.4267 26.8572 34.4267H23.1015C22.7554 34.4267 22.4756 34.1462 22.4756 33.8007V32.5489C22.4756 32.2033 22.7554 31.9229 23.1015 31.9229H26.8572C27.2033 31.9229 27.4831 32.2033 27.4831 32.5489V33.8007Z" fill="white"/>
<path d="M29.4648 40C27.8687 40 26.5968 39.5738 25.6673 38.7231C23.8295 37.0425 24.1431 34.3997 24.1575 34.2877C24.2226 33.7732 24.6958 33.4064 25.2072 33.4752C25.7211 33.541 26.0841 34.0085 26.0209 34.5212C26.0165 34.555 25.8275 36.3351 26.9435 37.3454C27.8405 38.1579 29.4655 38.335 31.6431 37.8574C37.5319 36.5661 38.4489 37.1507 38.8796 37.8612C39.1988 38.3863 39.0423 38.981 38.745 39.3371C38.4126 39.7352 37.8217 39.7897 37.423 39.458C37.2672 39.3278 37.1639 39.1581 37.1157 38.9754C36.5555 38.9403 35.1847 39.0035 32.0449 39.6921C31.1092 39.8974 30.2485 40 29.4648 40Z" fill="white"/>
<path d="M17.4681 32.5489C17.4681 32.2033 17.1883 31.9229 16.8421 31.9229H13.0865C12.741 31.9229 12.4606 32.2033 12.4606 32.5489V33.8007C12.4606 34.1462 12.741 34.4267 13.0865 34.4267H16.8421C17.1883 34.4267 17.4681 34.1462 17.4681 33.8007V32.5489Z" fill="white"/>
<path d="M10.5352 40C9.75213 40 8.89146 39.8973 7.95506 39.692C4.81848 39.0035 3.45018 38.9384 2.88496 38.9753C2.83676 39.1581 2.7341 39.3277 2.57762 39.4579C2.17952 39.7891 1.58801 39.7358 1.25564 39.3378C0.958315 38.981 0.80183 38.3863 1.12106 37.8612C1.55296 37.1507 2.46558 36.5655 8.35754 37.8574C10.5346 38.3356 12.1601 38.1585 13.0571 37.3454C14.1781 36.3307 13.9822 34.5393 13.9797 34.5212C13.9196 34.0079 14.2852 33.5397 14.7984 33.4771C15.3067 33.4114 15.778 33.7757 15.8438 34.2877C15.8575 34.3997 16.1711 37.0424 14.3334 38.7231C13.4039 39.5731 12.1326 40 10.5352 40Z" fill="white"/>
<path d="M20.1433 29.6269C17.6665 29.6269 15.651 27.612 15.651 25.1346C15.651 22.6577 17.6665 20.6422 20.1433 20.6422C22.6202 20.6422 24.6351 22.6577 24.6351 25.1346C24.6345 27.612 22.6202 29.6269 20.1433 29.6269ZM20.1433 22.52C18.7018 22.52 17.5288 23.693 17.5288 25.1346C17.5288 26.5761 18.7018 27.7491 20.1433 27.7491C21.5843 27.7491 22.7573 26.5761 22.7573 25.1346C22.7566 23.693 21.5836 22.52 20.1433 22.52Z" fill="white"/>
<path d="M20.2848 24.0987C19.7665 24.0987 19.3459 23.6786 19.3459 23.1597V21.2819C19.3459 20.763 19.7665 20.343 20.2848 20.343C20.8031 20.343 21.2237 20.763 21.2237 21.2819V23.1597C21.2237 23.6786 20.8031 24.0987 20.2848 24.0987Z" fill="white"/>
<path d="M22.2083 6.88532H17.2008C16.6825 6.88532 16.2619 6.46532 16.2619 5.94642C16.2619 5.42751 16.6825 5.00751 17.2008 5.00751H22.2083C22.7272 5.00751 23.1472 5.42751 23.1472 5.94642C23.1472 6.46532 22.7272 6.88532 22.2083 6.88532Z" fill="white"/>
</g>
<defs>
<clipPath id="clip0_4_197">
<rect width="40" height="40" rx="6" fill="white"/>
</clipPath>
</defs>
</svg>
