<svg width="42" height="42" viewBox="0 0 42 42" fill="none" xmlns="http://www.w3.org/2000/svg">
<path d="M1.74364 40.718V34.8196" stroke="white" stroke-width="0.854093" stroke-linecap="round" stroke-linejoin="round"/>
<path d="M1.74364 25.903V0.727539" stroke="white" stroke-width="0.854093" stroke-linecap="round" stroke-linejoin="round"/>
<path d="M4.48181 40.718V34.7905" stroke="white" stroke-width="0.854093" stroke-linecap="round" stroke-linejoin="round"/>
<path d="M4.48181 25.9066V0.727539" stroke="white" stroke-width="0.854093" stroke-linecap="round" stroke-linejoin="round"/>
<path d="M9.20728 40.718V31.8705" stroke="white" stroke-width="0.854093" stroke-linecap="round" stroke-linejoin="round"/>
<path d="M9.20728 15.4752V0.727539" stroke="white" stroke-width="0.854093" stroke-linecap="round" stroke-linejoin="round"/>
<path d="M9.20728 29.1255V24.3937" stroke="white" stroke-width="0.854093" stroke-linecap="round" stroke-linejoin="round"/>
<path d="M11.9436 40.718V31.8705" stroke="white" stroke-width="0.854093" stroke-linecap="round" stroke-linejoin="round"/>
<path d="M11.9436 15.4752V0.727539" stroke="white" stroke-width="0.854093" stroke-linecap="round" stroke-linejoin="round"/>
<path d="M11.9436 29.1255V24.3792" stroke="white" stroke-width="0.854093" stroke-linecap="round" stroke-linejoin="round"/>
<path d="M21.1127 16.4448V4.82318" stroke="white" stroke-width="0.854093" stroke-linecap="round" stroke-linejoin="round"/>
<path d="M23.8509 16.4612V4.75751" stroke="white" stroke-width="0.854093" stroke-linecap="round" stroke-linejoin="round"/>
<path d="M32.3691 15.3384V18.5628V21.306V27.0621" stroke="white" stroke-width="0.854093" stroke-linecap="round" stroke-linejoin="round"/>
<path d="M32.3691 8.48041V4.84686" stroke="white" stroke-width="0.854093" stroke-linecap="round" stroke-linejoin="round"/>
<path d="M35.1073 15.3238V18.5628V21.306V27.0931" stroke="white" stroke-width="0.854093" stroke-linecap="round" stroke-linejoin="round"/>
<path d="M35.1073 8.49315V4.73016" stroke="white" stroke-width="0.854093" stroke-linecap="round" stroke-linejoin="round"/>
<path d="M41 18.5628H35.1073" stroke="white" stroke-width="0.854093" stroke-linecap="round" stroke-linejoin="round"/>
<path d="M17.8545 18.5628H13.9418" stroke="white" stroke-width="0.854093" stroke-linecap="round" stroke-linejoin="round"/>
<path d="M32.3691 18.5628H26.7455" stroke="white" stroke-width="0.854093" stroke-linecap="round" stroke-linejoin="round"/>
<path d="M41 21.306H35.1073" stroke="white" stroke-width="0.854093" stroke-linecap="round" stroke-linejoin="round"/>
<path d="M17.86 21.306H13.9964" stroke="white" stroke-width="0.854093" stroke-linecap="round" stroke-linejoin="round"/>
<path d="M32.3691 21.306H26.7455" stroke="white" stroke-width="0.854093" stroke-linecap="round" stroke-linejoin="round"/>
<path d="M41 29.1255H37.96" stroke="white" stroke-width="0.854093" stroke-linecap="round" stroke-linejoin="round"/>
<path d="M23.0164 29.1255H23.8509H29.0764" stroke="white" stroke-width="0.854093" stroke-linecap="round" stroke-linejoin="round"/>
<path d="M6.47455 29.1255H11.6709H16.2" stroke="white" stroke-width="0.854093" stroke-linecap="round" stroke-linejoin="round"/>
<path d="M41 31.8705H37.9727" stroke="white" stroke-width="0.854093" stroke-linecap="round" stroke-linejoin="round"/>
<path d="M23.0291 31.8705H23.8509H29.0764" stroke="white" stroke-width="0.854093" stroke-linecap="round" stroke-linejoin="round"/>
<path d="M6.47455 31.8705H11.6709H16.1873" stroke="white" stroke-width="0.854093" stroke-linecap="round" stroke-linejoin="round"/>
<path d="M1 26.5883C1 26.2092 1.30545 25.903 1.68364 25.903H4.42C4.79818 25.903 5.10364 26.2092 5.10364 26.5883V28.5769H5.78727C6.16545 28.5769 6.47091 28.8831 6.47091 29.2622V31.732C6.47091 32.1111 6.16364 32.4174 5.78727 32.4174H4.96545V34.1325C4.96545 34.5117 4.65818 34.8179 4.28182 34.8179H1.68364C1.30545 34.8179 1 34.5117 1 34.1325V26.5865V26.5883Z" stroke="white" stroke-width="0.854093" stroke-linecap="round" stroke-linejoin="round"/>
<path d="M8.52364 16.1623C8.52364 15.7831 8.83091 15.4769 9.20727 15.4769H11.9436C12.3218 15.4769 12.6273 15.7831 12.6273 16.1623V18.1509H13.3109C13.6891 18.1509 13.9945 18.4571 13.9945 18.8362V21.306C13.9945 21.6851 13.6873 21.9913 13.3109 21.9913H12.4891V23.7065C12.4891 24.0856 12.1818 24.3919 11.8055 24.3919H9.20546C8.82727 24.3919 8.52182 24.0856 8.52182 23.7065V16.1604L8.52364 16.1623Z" stroke="white" stroke-width="0.854093" stroke-linecap="round" stroke-linejoin="round"/>
<path d="M18.54 21.9239C18.1618 21.9239 17.8564 21.6177 17.8564 21.2386V18.4954C17.8564 18.1162 18.1636 17.81 18.54 17.81H20.5236V17.1247C20.5236 16.7455 20.8291 16.4393 21.2073 16.4393H23.6709C24.0491 16.4393 24.3546 16.7455 24.3546 17.1247V17.9485H26.0655C26.4436 17.9485 26.7491 18.2548 26.7491 18.6339V21.2404C26.7491 21.6195 26.4418 21.9257 26.0655 21.9257H18.5382L18.54 21.9239Z" stroke="white" stroke-width="0.854093" stroke-linecap="round" stroke-linejoin="round"/>
<path d="M29.7618 32.5467C29.3836 32.5467 29.0782 32.2405 29.0782 31.8614V29.1182C29.0782 28.739 29.3855 28.4328 29.7618 28.4328H31.7455V27.7475C31.7455 27.3683 32.0527 27.0621 32.4291 27.0621H34.8927C35.2709 27.0621 35.5764 27.3683 35.5764 27.7475V28.5713H37.2873C37.6655 28.5713 37.9709 28.8776 37.9709 29.2567V31.8632C37.9709 32.2423 37.6655 32.5485 37.2873 32.5485H29.76L29.7618 32.5467Z" stroke="white" stroke-width="0.854093" stroke-linecap="round" stroke-linejoin="round"/>
<path d="M20.2927 28.5549L20.6345 28.5677H22.3455C22.7236 28.5677 23.0291 28.8758 23.0291 29.2532V31.8603C23.0291 32.2395 22.7236 32.5458 22.3455 32.5458H16.8709C16.4927 32.5458 16.1873 32.2377 16.1873 31.8603V29.2532C16.1873 28.874 16.4927 28.5677 16.8709 28.5677H19.9491L20.2909 28.5549H20.2927Z" stroke="white" stroke-width="0.854093" stroke-linecap="round" stroke-linejoin="round"/>
<path d="M31.6709 11.2227L31.6836 10.8801V9.1649C31.6836 8.78577 31.9891 8.47955 32.3673 8.47955H34.9673C35.3455 8.47955 35.6509 8.78577 35.6509 9.1649V14.6531C35.6509 15.0322 35.3455 15.3385 34.9673 15.3385H32.3673C31.9891 15.3385 31.6836 15.0322 31.6836 14.6531V11.5654L31.6709 11.2227Z" stroke="white" stroke-width="0.854093" stroke-linecap="round" stroke-linejoin="round"/>
<path d="M19.6073 28.5683V26.3823" stroke="white" stroke-width="0.854093" stroke-linecap="round" stroke-linejoin="round"/>
<path d="M21.2345 26.3823H17.9818" stroke="white" stroke-width="0.854093" stroke-linecap="round" stroke-linejoin="round"/>
<path d="M33.6618 5.25518C34.909 5.25518 35.92 4.24163 35.92 2.99136C35.92 1.74109 34.909 0.727539 33.6618 0.727539C32.4147 0.727539 31.4036 1.74109 31.4036 2.99136C31.4036 4.24163 32.4147 5.25518 33.6618 5.25518Z" stroke="white" stroke-width="0.854093" stroke-linecap="round" stroke-linejoin="round"/>
<path d="M24.6982 2.99136C24.6982 1.74097 23.6873 0.727539 22.44 0.727539C21.1927 0.727539 20.1818 1.74097 20.1818 2.99136C20.1818 4.24175 21.1927 5.25518 22.44 5.25518C23.6873 5.25518 24.6982 4.24175 24.6982 2.99136Z" stroke="white" stroke-width="0.854093" stroke-linecap="round" stroke-linejoin="round"/>
</svg>
