<svg width="40" height="40" viewBox="0 0 40 40" fill="none" xmlns="http://www.w3.org/2000/svg">
<path d="M32.1094 9.0625C32.5408 9.0625 32.8906 8.71266 32.8906 8.28125V3.98438C32.8906 3.55297 32.5408 3.20312 32.1094 3.20312C31.678 3.20312 31.3281 3.55297 31.3281 3.98438V8.28125C31.3281 8.71266 31.678 9.0625 32.1094 9.0625Z" fill="white"/>
<path d="M10.0781 16.4844H12.5781V18.8281C12.5781 19.2596 12.9279 19.6094 13.3594 19.6094C13.7909 19.6094 14.1406 19.2596 14.1406 18.8281V16.4844H25.8594V18.8281C25.8594 19.2596 26.2092 19.6094 26.6406 19.6094C27.072 19.6094 27.4219 19.2596 27.4219 18.8281V16.4844H29.9219C31.5588 16.4844 32.8906 15.1526 32.8906 13.5156V11.4062C32.8906 10.9748 32.5408 10.625 32.1094 10.625C31.678 10.625 31.3281 10.9748 31.3281 11.4062V13.5156C31.3281 14.291 30.6973 14.9219 29.9219 14.9219H10.0781C9.30273 14.9219 8.67188 14.291 8.67188 13.5156V3.98438C8.67188 3.55297 8.32203 3.20312 7.89062 3.20312C7.45922 3.20312 7.10938 3.55297 7.10938 3.98438V13.5156C7.10938 15.1526 8.44117 16.4844 10.0781 16.4844Z" fill="white"/>
<path d="M34.4531 21.9531C34.4531 21.5217 34.1033 21.1719 33.6719 21.1719C33.2405 21.1719 32.8906 21.5217 32.8906 21.9531C32.8906 28.4148 27.6336 33.6719 21.1719 33.6719H18.8281C12.3664 33.6719 7.10938 28.4148 7.10938 21.9531C7.10938 21.5217 6.75953 21.1719 6.32812 21.1719C5.89672 21.1719 5.54688 21.5217 5.54688 21.9531C5.54688 27.8747 9.44266 32.9029 14.8055 34.6111L12.6642 38.784C12.398 39.303 12.7753 39.9219 13.3594 39.9219H26.6406C27.224 39.9219 27.6023 39.3036 27.3357 38.784L25.1945 34.6111C30.5573 32.9029 34.4531 27.8747 34.4531 21.9531ZM25.3616 38.3594H14.6384L16.3604 35.0035C17.1603 35.1545 17.985 35.2344 18.8281 35.2344H21.1719C22.015 35.2344 22.8397 35.1545 23.6396 35.0035L25.3616 38.3594Z" fill="white"/>
<path d="M11.0156 7.89062H13.3594C13.7909 7.89062 14.1406 7.54078 14.1406 7.10938C14.1406 6.67797 13.7909 6.32812 13.3594 6.32812H11.0156C10.5841 6.32812 10.2344 6.67797 10.2344 7.10938C10.2344 7.54078 10.5841 7.89062 11.0156 7.89062Z" fill="white"/>
<path d="M30.5469 7.5C29.2545 7.5 28.2031 8.55141 28.2031 9.84375C28.2031 11.1361 29.2545 12.1875 30.5469 12.1875H33.6719C34.9642 12.1875 36.0156 11.1361 36.0156 9.84375C36.0156 8.55141 34.9642 7.5 33.6719 7.5H30.5469ZM34.4531 9.84375C34.4531 10.2745 34.1027 10.625 33.6719 10.625H30.5469C30.1161 10.625 29.7656 10.2745 29.7656 9.84375C29.7656 9.41297 30.1161 9.0625 30.5469 9.0625H33.6719C34.1027 9.0625 34.4531 9.41297 34.4531 9.84375Z" fill="white"/>
<path d="M32.1094 18.0469H7.89062C5.73672 18.0469 3.98438 19.7992 3.98438 21.9531C3.98438 22.3845 4.33422 22.7344 4.76562 22.7344H35.2344C35.6658 22.7344 36.0156 22.3845 36.0156 21.9531C36.0156 19.7992 34.2633 18.0469 32.1094 18.0469ZM5.68078 21.1719C6.0032 20.2624 6.87211 19.6094 7.89062 19.6094H32.1094C33.1279 19.6094 33.9968 20.2624 34.3192 21.1719H5.68078Z" fill="white"/>
<path d="M7.10938 4.76562H32.8906C34.183 4.76562 35.2344 3.71422 35.2344 2.42188C35.2344 1.12953 34.183 0.078125 32.8906 0.078125H7.10938C5.81703 0.078125 4.76562 1.12953 4.76562 2.42188C4.76562 3.71422 5.81703 4.76562 7.10938 4.76562ZM7.10938 1.64062H32.8906C33.3214 1.64062 33.6719 1.99109 33.6719 2.42188C33.6719 2.85266 33.3214 3.20312 32.8906 3.20312H7.10938C6.67859 3.20312 6.32812 2.85266 6.32812 2.42188C6.32812 1.99109 6.67859 1.64062 7.10938 1.64062Z" fill="white"/>
</svg>
