<svg width="40" height="40" viewBox="0 0 40 40" fill="none" xmlns="http://www.w3.org/2000/svg">
<path d="M35.2344 11.0156H15.7031V7.89062C15.7031 7.45922 15.3533 7.10938 14.9219 7.10938C14.4904 7.10938 14.1406 7.45922 14.1406 7.89062V11.0156H10.2344V7.89062C10.2344 7.45922 9.88453 7.10938 9.45312 7.10938C9.02164 7.10938 8.67188 7.45922 8.67188 7.89062V11.0156H7.10938C5.38625 11.0156 3.98438 12.4175 3.98438 14.1406V30.5469H2.42188C1.99039 30.5469 1.64062 30.8967 1.64062 31.3281V39.1406C1.64062 39.572 1.99039 39.9219 2.42188 39.9219H18.0469C18.4784 39.9219 18.8281 39.572 18.8281 39.1406V31.3281C18.8281 30.8967 18.4784 30.5469 18.0469 30.5469H16.4844V19.6094C16.4844 18.7478 17.1853 18.0469 18.0469 18.0469H28.9844V21.1719C28.9844 21.6033 29.3342 21.9531 29.7656 21.9531H36.0156C36.447 21.9531 36.7969 21.6033 36.7969 21.1719V18.0469H37.5781C38.0095 18.0469 38.3594 17.6971 38.3594 17.2656V14.1406C38.3594 12.4175 36.9575 11.0156 35.2344 11.0156ZM3.20312 38.3594V35.2344H17.2656V38.3594H3.20312ZM17.2656 33.6719H3.20312V32.1094C11.4957 32.1094 9.09781 32.1094 17.2656 32.1094V33.6719ZM5.54688 30.5469V28.2031H14.9219V30.5469H5.54688ZM35.2344 20.3906H30.5469V18.0469H35.2344V20.3906ZM36.7969 16.4844C35.9702 16.4844 19.0339 16.4844 18.0469 16.4844C16.3237 16.4844 14.9219 17.8862 14.9219 19.6094V26.6406H5.54688V14.1406C5.54688 13.2791 6.24781 12.5781 7.10938 12.5781H35.2344C36.0959 12.5781 36.7969 13.2791 36.7969 14.1406V16.4844Z" fill="white"/>
<path d="M31.3281 3.98438V0.859375C31.3281 0.427891 30.9783 0.078125 30.5469 0.078125H10.2344C8.51125 0.078125 7.10938 1.48 7.10938 3.20312V7.89062C7.10938 8.32203 7.45914 8.67188 7.89062 8.67188H16.4844C16.9159 8.67188 17.2656 8.32203 17.2656 7.89062V4.76562H30.5469C30.9783 4.76562 31.3281 4.41578 31.3281 3.98438ZM29.7656 3.20312H16.4844C16.0529 3.20312 15.7031 3.55297 15.7031 3.98438V7.10938H8.67188V3.20312C8.67188 2.34156 9.37281 1.64062 10.2344 1.64062H29.7656V3.20312Z" fill="white"/>
<path d="M35.0959 23.8528C34.7856 23.4035 34.1206 23.4036 33.8104 23.8528C33.2989 24.5933 32.1094 26.4231 32.1094 27.4219C32.1094 28.7142 33.1608 29.7656 34.4531 29.7656C35.7455 29.7656 36.7969 28.7142 36.7969 27.4219C36.7969 26.4231 35.6073 24.5933 35.0959 23.8528ZM34.4531 28.2031C34.0223 28.2031 33.6719 27.8527 33.6719 27.4228C33.6782 27.1839 34.0032 26.5032 34.4533 25.7448C34.903 26.5023 35.2277 27.1828 35.2344 27.4226C35.2341 27.853 34.8837 28.2031 34.4531 28.2031Z" fill="white"/>
<path d="M31.4666 31.6653C30.9552 32.4058 29.7656 34.2356 29.7656 35.2344C29.7656 36.5267 30.817 37.5781 32.1094 37.5781C33.4017 37.5781 34.4531 36.5267 34.4531 35.2344C34.4531 34.2356 33.2636 32.4058 32.7522 31.6653C32.4418 31.2161 31.7769 31.2162 31.4666 31.6653ZM32.1094 36.0156C31.6786 36.0156 31.3281 35.6652 31.3281 35.2353C31.3345 34.9964 31.6595 34.3157 32.1095 33.5573C32.5592 34.3148 32.884 34.9953 32.8906 35.2351C32.8903 35.6655 32.54 36.0156 32.1094 36.0156Z" fill="white"/>
</svg>
