<svg width="40" height="40" viewBox="0 0 40 40" fill="none" xmlns="http://www.w3.org/2000/svg">
<path d="M34.6828 23.1617C34.4984 23.1617 34.318 23.068 34.2148 22.8984C33.2367 21.2883 31.7148 20.0883 29.9289 19.5195C29.6414 19.4281 29.482 19.1203 29.5734 18.8328C29.6648 18.5453 29.9727 18.3859 30.2602 18.4781C32.2977 19.1273 34.0336 20.4953 35.1484 22.3312C35.3055 22.5891 35.2234 22.9258 34.9648 23.0828C34.8773 23.1367 34.7797 23.1617 34.6828 23.1617Z" fill="white"/>
<path d="M9.90547 21.5476C9.85078 21.5476 9.79453 21.5391 9.73906 21.5219C7.39609 20.7758 5.45156 19.068 4.40391 16.8367C4.27578 16.5633 4.39297 16.2375 4.66641 16.1094C4.93984 15.9805 5.26562 16.0984 5.39375 16.3719C6.3125 18.3281 8.01719 19.8258 10.0711 20.4797C10.3586 20.5711 10.518 20.8789 10.4266 21.1664C10.3523 21.3992 10.1367 21.5476 9.90547 21.5476Z" fill="white"/>
<path d="M27.5797 23.1625C27.2773 23.1625 27.0328 22.918 27.0328 22.6156V18.1328H12.9664V22.0687H24.5195C24.8219 22.0687 25.0664 22.3133 25.0664 22.6156C25.0664 22.918 24.8219 23.1625 24.5195 23.1625H12.4195C12.1172 23.1625 11.8727 22.918 11.8727 22.6156V17.5859C11.8727 17.2836 12.1172 17.0391 12.4195 17.0391H27.5797C27.882 17.0391 28.1266 17.2836 28.1266 17.5859V22.6156C28.1266 22.9172 27.882 23.1625 27.5797 23.1625Z" fill="white"/>
<path d="M36.8187 38.9453H31.7891C31.4867 38.9453 31.2422 38.7008 31.2422 38.3984V28.7328C31.2422 28.4304 31.4867 28.1859 31.7891 28.1859H36.8187C37.1211 28.1859 37.3656 28.4304 37.3656 28.7328C37.3656 29.0351 37.1211 29.2797 36.8187 29.2797H32.3359V37.8515H36.2719V30.9023C36.2719 30.6 36.5164 30.3554 36.8187 30.3554C37.1211 30.3554 37.3656 30.6 37.3656 30.9023V38.3984C37.3656 38.7008 37.1211 38.9453 36.8187 38.9453Z" fill="white"/>
<path d="M8.13906 7.75236C8.1039 7.75236 8.06797 7.74923 8.03281 7.7422C7.99765 7.73517 7.96328 7.72423 7.93047 7.71095C7.89687 7.69689 7.86562 7.68048 7.83594 7.66017C7.80547 7.64064 7.77812 7.61798 7.75234 7.5922C7.72734 7.5672 7.70469 7.53907 7.68437 7.50939C7.66484 7.4797 7.64765 7.44767 7.63437 7.41486C7.62031 7.38204 7.61015 7.34767 7.60312 7.31251C7.59609 7.27736 7.59219 7.24142 7.59219 7.20548C7.59219 7.17032 7.59609 7.13439 7.60312 7.09923C7.61015 7.06407 7.62031 7.0297 7.63437 6.99689C7.64765 6.96329 7.66484 6.93204 7.68437 6.90236C7.70469 6.87189 7.72734 6.84454 7.75234 6.81876C7.77812 6.79376 7.80547 6.77111 7.83594 6.75079C7.86562 6.73126 7.89687 6.71407 7.93047 6.70079C7.96328 6.68751 7.99765 6.67657 8.03203 6.66954C8.10312 6.65548 8.17578 6.65548 8.24609 6.66954C8.28125 6.67657 8.31562 6.68751 8.34844 6.70079C8.38125 6.71407 8.41328 6.73126 8.44297 6.75079C8.47265 6.77111 8.50078 6.79376 8.52578 6.81876C8.55156 6.84454 8.57422 6.87189 8.59375 6.90236C8.61406 6.93204 8.63047 6.96329 8.64453 6.99689C8.65781 7.0297 8.66875 7.06407 8.67578 7.09923C8.68281 7.13439 8.68594 7.17032 8.68594 7.20548C8.68594 7.24142 8.68281 7.27736 8.67578 7.31251C8.66875 7.34767 8.65781 7.38204 8.64453 7.41486C8.63047 7.44767 8.61406 7.4797 8.59375 7.50939C8.57422 7.53907 8.55156 7.5672 8.52578 7.5922C8.50078 7.61798 8.47265 7.64064 8.44297 7.66017C8.41328 7.68048 8.38125 7.69689 8.34844 7.71095C8.31562 7.72423 8.28125 7.73517 8.24609 7.7422C8.21094 7.74923 8.175 7.75236 8.13906 7.75236Z" fill="white"/>
<path d="M8.13906 11.8141H3.10937C2.80703 11.8141 2.5625 11.5695 2.5625 11.2672V1.60156C2.5625 1.29922 2.80703 1.05469 3.10937 1.05469H8.13906C8.44141 1.05469 8.68594 1.29922 8.68594 1.60156V5.61016C8.68594 5.9125 8.44141 6.15703 8.13906 6.15703C7.83672 6.15703 7.59219 5.9125 7.59219 5.61016V2.14844H3.65625V10.7203H7.59219V8.93437C7.59219 8.63203 7.83672 8.3875 8.13906 8.3875C8.44141 8.3875 8.68594 8.63203 8.68594 8.93437V11.2672C8.68594 11.5695 8.44141 11.8141 8.13906 11.8141Z" fill="white"/>
<path d="M38.3984 29.2797H30.3883C30.0859 29.2797 29.8414 29.0352 29.8414 28.7328V26.9141C29.8414 25.6672 28.8273 24.6524 27.5805 24.6524C27.2781 24.6524 27.0336 24.4078 27.0336 24.1055V16.0953C27.0336 15.793 27.2781 15.5485 27.5805 15.5485C33.8469 15.5485 38.9453 20.6469 38.9453 26.9133V28.7321C38.9453 29.0352 38.7008 29.2797 38.3984 29.2797ZM30.9352 28.186H37.8516V26.9141C37.8516 21.4336 33.5375 16.9422 28.1273 16.6571V23.6039C29.718 23.8656 30.9352 25.2508 30.9352 26.9149V28.186Z" fill="white"/>
<path d="M12.4195 24.4516C9.95781 24.4516 7.61406 23.6742 5.64062 22.2031C5.39844 22.0227 5.34844 21.6797 5.52891 21.4375C5.70937 21.1953 6.05234 21.1453 6.29453 21.3258C7.93047 22.5453 9.84922 23.2375 11.8727 23.343V16.3961C10.282 16.1344 9.06484 14.7492 9.06484 13.0852V11.8133H2.14844V13.0852C2.14844 15.2375 2.81016 17.2992 4.06172 19.0485C4.2375 19.2938 4.18125 19.636 3.93516 19.8117C3.68984 19.9875 3.34766 19.9313 3.17188 19.6852C1.78672 17.7492 1.05469 15.4672 1.05469 13.086V11.2672C1.05469 10.9649 1.29922 10.7203 1.60156 10.7203H9.61172C9.91406 10.7203 10.1586 10.9649 10.1586 11.2672V13.086C10.1586 14.3328 11.1727 15.3477 12.4195 15.3477C12.7219 15.3477 12.9664 15.5922 12.9664 15.8946V23.9047C12.9664 24.2063 12.7219 24.4516 12.4195 24.4516Z" fill="white"/>
</svg>
