<svg width="40" height="40" viewBox="0 0 40 40" fill="none" xmlns="http://www.w3.org/2000/svg">
<path d="M23.3817 33.1975C23.3817 32.7064 22.9831 32.3079 22.492 32.3079C22.0009 32.3079 21.6023 32.7064 21.6023 33.1975C21.6023 33.6886 22.0009 34.0872 22.492 34.0872C22.9831 34.0872 23.3817 33.6886 23.3817 33.1975Z" fill="white"/>
<path d="M6.80872 30.7011C6.80872 30.21 6.41014 29.8114 5.91904 29.8114C5.42794 29.8114 5.02936 30.21 5.02936 30.7011C5.02936 31.1922 5.42794 31.5908 5.91904 31.5908C6.41014 31.5908 6.80872 31.1922 6.80872 30.7011Z" fill="white"/>
<path d="M9.47776 31.0836C9.47776 30.5925 9.07918 30.194 8.58808 30.194C8.09698 30.194 7.6984 30.5925 7.6984 31.0836C7.6984 31.5748 8.09698 31.9733 8.58808 31.9733C9.07918 31.9733 9.47776 31.5748 9.47776 31.0836Z" fill="white"/>
<path d="M8.58808 34.0872C8.58808 33.5961 8.1895 33.1975 7.6984 33.1975C7.2073 33.1975 6.80872 33.5961 6.80872 34.0872C6.80872 34.5783 7.2073 34.9769 7.6984 34.9769C8.1895 34.9769 8.58808 34.5783 8.58808 34.0872Z" fill="white"/>
<path d="M13.6219 35.8666C13.6219 35.3755 13.2233 34.9769 12.7322 34.9769C12.2411 34.9769 11.8425 35.3755 11.8425 35.8666C11.8425 36.3577 12.2411 36.7563 12.7322 36.7563C13.2233 36.7563 13.6219 36.3577 13.6219 35.8666Z" fill="white"/>
<path d="M11.4137 34.0872C11.4137 33.5961 11.0151 33.1975 10.524 33.1975C10.0329 33.1975 9.63434 33.5961 9.63434 34.0872C9.63434 34.5783 10.0329 34.9769 10.524 34.9769C11.0151 34.9769 11.4137 34.5783 11.4137 34.0872Z" fill="white"/>
<path d="M16.2909 34.9768C16.2909 34.4857 15.8923 34.0872 15.4012 34.0872C14.9101 34.0872 14.5116 34.4857 14.5116 34.9768C14.5116 35.4679 14.9101 35.8665 15.4012 35.8665C15.8923 35.8665 16.2909 35.4679 16.2909 34.9768Z" fill="white"/>
<path d="M11.4137 36.7563C11.4137 36.2652 11.0151 35.8666 10.524 35.8666C10.0329 35.8666 9.63434 36.2652 9.63434 36.7563C9.63434 37.2474 10.0329 37.6459 10.524 37.6459C11.0151 37.6459 11.4137 37.2474 11.4137 36.7563Z" fill="white"/>
<path d="M15.4012 37.6459C15.4012 37.1548 15.0027 36.7562 14.5116 36.7562C14.0205 36.7562 13.6219 37.1548 13.6219 37.6459C13.6219 38.137 14.0205 38.5356 14.5116 38.5356C15.0027 38.5356 15.4012 38.137 15.4012 37.6459Z" fill="white"/>
<path d="M20.976 32.6584C20.976 32.1673 20.5774 31.7687 20.0863 31.7687C19.5952 31.7687 19.1966 32.1673 19.1966 32.6584C19.1966 33.1495 19.5952 33.548 20.0863 33.548C20.5774 33.548 20.976 33.1495 20.976 32.6584Z" fill="white"/>
<path d="M18.5899 36.7563C18.5899 36.2652 18.1913 35.8666 17.7002 35.8666C17.2091 35.8666 16.8105 36.2652 16.8105 36.7563C16.8105 37.2474 17.2091 37.6459 17.7002 37.6459C18.1913 37.6459 18.5899 37.2474 18.5899 36.7563Z" fill="white"/>
<path d="M19.0187 34.258C19.0187 33.7669 18.6201 33.3683 18.129 33.3683C17.6379 33.3683 17.2393 33.7669 17.2393 34.258C17.2393 34.7491 17.6379 35.1476 18.129 35.1476C18.6201 35.1476 19.0187 34.7491 19.0187 34.258Z" fill="white"/>
<path d="M21.5098 35.3328C21.5098 34.8417 21.1112 34.4431 20.6201 34.4431C20.129 34.4431 19.7304 34.8417 19.7304 35.3328C19.7304 35.8239 20.129 36.2225 20.6201 36.2225C21.1112 36.2225 21.5098 35.8239 21.5098 35.3328Z" fill="white"/>
<path d="M25.4902 26.0196V28.5943C25.4902 34.6495 20.5649 39.573 14.5116 39.573C8.45819 39.573 3.53292 34.6495 3.53292 28.5943V16.8114" stroke="white" stroke-width="0.854093" stroke-linecap="round" stroke-linejoin="round"/>
<path d="M3.53292 13.7207V0.427063" stroke="white" stroke-width="0.854093" stroke-linecap="round" stroke-linejoin="round"/>
<path d="M25.5329 22.9289C25.8354 20.6815 27.766 18.9449 30.0934 18.9449H37.7927" stroke="white" stroke-width="0.854093" stroke-linecap="round" stroke-linejoin="round"/>
<path d="M19.1343 22.9288C19.4564 17.1619 24.2482 12.5694 30.0952 12.5694H37.7945" stroke="white" stroke-width="0.854093" stroke-linecap="round" stroke-linejoin="round"/>
<path d="M9.90836 13.7207V0.427063" stroke="white" stroke-width="0.854093" stroke-linecap="round" stroke-linejoin="round"/>
<path d="M19.1165 26.0196V28.5943C19.1165 31.1335 17.0525 33.1975 14.5133 33.1975C11.9742 33.1975 9.90836 31.1335 9.90836 28.5943V16.8114" stroke="white" stroke-width="0.854093" stroke-linecap="round" stroke-linejoin="round"/>
<path d="M10.3514 13.7206H3.26779C2.68111 13.7206 2.20552 14.1962 2.20552 14.7829V15.7509C2.20552 16.3376 2.68111 16.8132 3.26779 16.8132H10.3514C10.9381 16.8132 11.4137 16.3376 11.4137 15.7509V14.7829C11.4137 14.1962 10.9381 13.7206 10.3514 13.7206Z" stroke="white" stroke-width="0.854093" stroke-linecap="round" stroke-linejoin="round"/>
<path d="M18.7625 22.9288H25.8461C26.4333 22.9288 26.9084 23.4057 26.9084 23.9911V24.9591C26.9084 25.5463 26.4315 26.0214 25.8461 26.0214H18.7625C18.1753 26.0214 17.7002 25.5445 17.7002 24.9591V23.9911C17.7002 23.4039 18.177 22.9288 18.7625 22.9288Z" stroke="white" stroke-width="0.854093" stroke-linecap="round" stroke-linejoin="round"/>
<path d="M9.90837 9.15306C6.72153 9.15306 6.72153 8.08545 3.53292 8.08545" stroke="white" stroke-width="0.854093" stroke-linecap="round" stroke-linejoin="round"/>
</svg>
