<svg width="40" height="40" viewBox="0 0 40 40" fill="none" xmlns="http://www.w3.org/2000/svg">
<path d="M23.7473 6.97687H16.2527C15.8763 6.97687 15.5712 7.28198 15.5712 7.65836V8.79359C15.5712 9.16997 15.8763 9.47509 16.2527 9.47509H23.7473C24.1237 9.47509 24.4288 9.16997 24.4288 8.79359V7.65836C24.4288 7.28198 24.1237 6.97687 23.7473 6.97687Z" stroke="white" stroke-width="0.854093" stroke-linecap="round" stroke-linejoin="round"/>
<path d="M23.0658 9.4751V15.3808C21.2562 16.7687 18.742 16.7687 16.9341 15.3808V9.4751" stroke="white" stroke-width="0.854093" stroke-linecap="round" stroke-linejoin="round"/>
<path d="M29.0836 13.3025H27.9484C27.572 13.3025 27.2669 13.6076 27.2669 13.984V21.4786C27.2669 21.855 27.572 22.1601 27.9484 22.1601H29.0836C29.46 22.1601 29.7651 21.855 29.7651 21.4786V13.984C29.7651 13.6076 29.46 13.3025 29.0836 13.3025Z" stroke="white" stroke-width="0.854093" stroke-linecap="round" stroke-linejoin="round"/>
<path d="M10.9146 13.3025H12.0498C12.4253 13.3025 12.7313 13.6085 12.7313 13.984V21.4786C12.7313 21.8541 12.4253 22.1601 12.0498 22.1601H10.9146C10.5391 22.1601 10.2331 21.8541 10.2331 21.4786V13.984C10.2331 13.6085 10.5391 13.3025 10.9146 13.3025Z" stroke="white" stroke-width="0.854093" stroke-linecap="round" stroke-linejoin="round"/>
<path d="M12.7331 20.799H18.637H21.363H27.2669" stroke="white" stroke-width="0.854093" stroke-linecap="round" stroke-linejoin="round"/>
<path d="M27.2687 14.6655H23.0658" stroke="white" stroke-width="0.854093" stroke-linecap="round" stroke-linejoin="round"/>
<path d="M16.9341 14.6655H12.7313" stroke="white" stroke-width="0.854093" stroke-linecap="round" stroke-linejoin="round"/>
<path d="M29.7669 14.6655H39.5729" stroke="white" stroke-width="0.854093" stroke-linecap="round" stroke-linejoin="round"/>
<path d="M10.2331 14.6655H0.427032" stroke="white" stroke-width="0.854093" stroke-linecap="round" stroke-linejoin="round"/>
<path d="M29.7669 20.799H39.5729" stroke="white" stroke-width="0.854093" stroke-linecap="round" stroke-linejoin="round"/>
<path d="M10.2331 20.799H0.427032" stroke="white" stroke-width="0.854093" stroke-linecap="round" stroke-linejoin="round"/>
<path d="M10.0445 21.7936C10.0445 21.7936 12.6815 27.0694 12.6815 29.7064C12.6815 30.9929 12.0552 31.6993 11.4128 32.0872C10.5765 32.5925 9.52491 32.5943 8.68683 32.0943C8.04092 31.7082 7.40747 31 7.40747 29.7082C7.40747 27.0712 10.0445 21.7954 10.0445 21.7954V21.7936Z" stroke="white" stroke-width="0.854093" stroke-linecap="round" stroke-linejoin="round"/>
<path d="M9.28469 30.8238C8.27401 30.3665 8.78647 28.9021 9.00533 28.1192" stroke="white" stroke-width="0.854093" stroke-linecap="round" stroke-linejoin="round"/>
<path d="M15.9039 22.0303V22.7705" stroke="white" stroke-width="0.854093" stroke-linecap="round" stroke-linejoin="round"/>
<path d="M15.9039 24.3577V25.0979" stroke="white" stroke-width="0.854093" stroke-linecap="round" stroke-linejoin="round"/>
<path d="M17.4377 23.5641H16.6975" stroke="white" stroke-width="0.854093" stroke-linecap="round" stroke-linejoin="round"/>
<path d="M15.1085 23.5641H14.3701" stroke="white" stroke-width="0.854093" stroke-linecap="round" stroke-linejoin="round"/>
<path d="M4.31317 29.9555V30.5178" stroke="white" stroke-width="0.854093" stroke-linecap="round" stroke-linejoin="round"/>
<path d="M4.31317 32.4626V33.0231" stroke="white" stroke-width="0.854093" stroke-linecap="round" stroke-linejoin="round"/>
<path d="M5.84875 31.4893H5.28647" stroke="white" stroke-width="0.854093" stroke-linecap="round" stroke-linejoin="round"/>
<path d="M3.34164 31.4893H2.77936" stroke="white" stroke-width="0.854093" stroke-linecap="round" stroke-linejoin="round"/>
</svg>
